<svg xmlns="http://www.w3.org/2000/svg" viewBox="0 0 512 512">
  <path fill="currentColor" d="M437.333 42.667H416c-5.888 0-10.667 4.779-10.667 10.667S410.112 64 416 64h21.333c29.419 0 53.333 23.915 53.333 53.333v320c0 29.419-23.915 53.333-53.333 53.333H74.667c-29.419 0-53.333-23.915-53.333-53.333v-320C21.333 87.915 45.248 64 74.667 64H96c5.888 0 10.667-4.779 10.667-10.667S101.888 42.667 96 42.667H74.667C33.493 42.667 0 76.16 0 117.333v320C0 478.507 33.493 512 74.667 512h362.667C478.507 512 512 478.507 512 437.333v-320c0-41.173-33.493-74.666-74.667-74.666z"/>
  <path fill="currentColor" d="M330.667 42.667H181.333c-5.888 0-10.667 4.779-10.667 10.667S175.445 64 181.333 64h149.333c5.888 0 10.667-4.779 10.667-10.667s-4.778-10.666-10.666-10.666zM501.333 149.333H10.667C4.779 149.333 0 154.112 0 160s4.779 10.667 10.667 10.667h490.667c5.888 0 10.667-4.779 10.667-10.667s-4.78-10.667-10.668-10.667zM138.667 0C132.779 0 128 4.779 128 10.667V96c0 5.888 4.779 10.667 10.667 10.667s10.667-4.779 10.667-10.667V10.667C149.333 4.779 144.555 0 138.667 0zM373.333 0c-5.888 0-10.667 4.779-10.667 10.667V96c0 5.888 4.779 10.667 10.667 10.667S384 101.888 384 96V10.667C384 4.779 379.221 0 373.333 0zM213.291 330.667c12.971-9.728 21.376-25.259 21.376-42.667 0-29.419-23.915-53.333-53.333-53.333C151.915 234.667 128 258.581 128 288c0 5.888 4.779 10.667 10.667 10.667s10.667-4.779 10.667-10.667c0-17.643 14.357-32 32-32s32 14.357 32 32-14.357 32-32 32H160c-5.888 0-10.667 4.779-10.667 10.667s4.779 10.667 10.667 10.667h21.333c17.643 0 32 14.357 32 32s-14.357 32-32 32-32-14.357-32-32c0-5.888-4.779-10.667-10.667-10.667S128 367.445 128 373.333c0 29.419 23.915 53.333 53.333 53.333 29.419 0 53.333-23.915 53.333-53.333.001-17.408-8.405-32.938-21.375-42.666zM334.763 235.477a10.658 10.658 0 00-11.627 2.304l-42.667 42.667c-4.16 4.16-4.16 10.923 0 15.083s10.923 4.16 15.083 0L320 271.083V416c0 5.888 4.779 10.667 10.667 10.667s10.667-4.779 10.667-10.667V245.333c-.001-4.309-2.603-8.213-6.571-9.856z"/>
  <path fill="currentColor" d="M373.333 405.333H288c-5.888 0-10.667 4.779-10.667 10.667s4.779 10.667 10.667 10.667h85.333c5.888 0 10.667-4.779 10.667-10.667s-4.779-10.667-10.667-10.667z"/>
</svg>
