<svg xmlns="http://www.w3.org/2000/svg" viewBox="0 0 69 69" fill="currentColor"><path d="M5.6 28C4.4 28 3.4 29 3.4 30.2V38.8C3.4 40 4.4 41 5.6 41H9.6C10.2 43.3 11.1 45.5 12.4 47.5L9.6 50.3C8.7 51.1 8.7 52.5 9.6 53.4L15.6 59.4C16.5 60.3 17.9 60.3 18.7 59.4L21.6 56.6C23.6 57.8 25.8 58.7 28.1 59.3V63.3C28.1 64.5 29 65.5 30.3 65.5H38.8C40.1 65.5 41 64.5 41 63.3V59.2C43.3 58.6 45.5 57.7 47.5 56.5L50.4 59.4C51.2 60.3 52.6 60.3 53.5 59.4L59.5 53.4C60.4 52.5 60.4 51.1 59.5 50.3L56.6 47.4C57.8 45.4 58.7 43.2 59.3 40.9H63.4C64.6 40.9 65.6 40 65.6 38.7V30.2C65.6 28.9 64.6 28 63.4 28H59.3C58.7 25.7 57.8 23.5 56.6 21.5L59.5 18.6C60.4 17.8 60.4 16.4 59.5 15.5L53.4 9.5C52.6 8.7 51.2 8.7 50.3 9.5L47.5 12.4C45.5 11.2 43.3 10.3 41 9.6V5.6C41 4.4 40 3.4 38.8 3.4H30.2C29 3.4 28 4.4 28 5.6V9.6C25.7 10.2 23.5 11.1 21.5 12.3L18.7 9.5C17.8 8.6 16.4 8.6 15.6 9.5L9.5 15.6C8.7 16.4 8.7 17.8 9.5 18.7L12.3 21.4C11.1 23.5 10.2 25.7 9.6 28H5.6ZM13.5 30.6C14.1 27.6 15.2 24.9 16.9 22.4 17.5 21.6 17.4 20.4 16.6 19.6L14.2 17.1 17.1 14.2 19.6 16.7C20.4 17.4 21.6 17.5 22.4 17 24.9 15.2 27.7 14.1 30.6 13.6 31.6 13.4 32.4 12.5 32.4 11.4V7.9H36.6V11.4C36.6 12.5 37.3 13.4 38.4 13.6 41.3 14.1 44 15.3 46.5 17 47.3 17.5 48.5 17.4 49.3 16.7L51.8 14.1 54.8 17.1 52.2 19.6C51.5 20.4 51.3 21.6 51.9 22.4 53.6 24.9 54.7 27.6 55.3 30.5 55.5 31.6 56.4 32.4 57.4 32.4H61.1V36.5H57.4C56.4 36.5 55.5 37.3 55.3 38.3 54.8 41.2 53.6 44 51.9 46.4 51.3 47.3 51.5 48.5 52.2 49.2L54.8 51.8 51.8 54.7 49.3 52.2C48.5 51.4 47.3 51.3 46.5 51.9 44 53.6 41.3 54.7 38.4 55.3 37.3 55.5 36.6 56.4 36.6 57.4V61H32.4V57.4C32.4 56.3 31.7 55.4 30.6 55.3 27.6 54.7 24.9 53.6 22.4 51.9 21.6 51.3 20.4 51.4 19.6 52.2L17.1 54.7 14.2 51.9 16.7 49.4C17.4 48.6 17.5 47.4 17 46.6 15.2 44.1 14.1 41.3 13.5 38.4 13.3 37.4 12.5 36.6 11.4 36.6H7.9V32.5H11.4C12.4 32.4 13.3 31.7 13.5 30.6Z"/><path d="M34.4 49.9C42.7 49.9 49.5 43.1 49.5 34.8 49.5 26.5 42.7 19.8 34.4 19.8 26.2 19.8 19.4 26.5 19.4 34.8 19.4 43.1 26.2 49.9 34.4 49.9ZM34.4 24.2C40.3 24.2 45.1 28.9 45.1 34.8 45.1 40.7 40.3 45.5 34.4 45.5 28.6 45.5 23.8 40.7 23.8 34.8 23.8 28.9 28.6 24.2 34.4 24.2Z"/></svg>