<svg width="92" height="93" viewBox="0 0 92 93" fill="none" xmlns="http://www.w3.org/2000/svg">
<path d="M16.6281 75.8192H24.5143C25.53 75.8192 26.3543 74.9877 26.3543 73.9592V60.3551C26.3543 59.3265 25.53 58.4951 24.5143 58.4951H16.6281C15.6124 58.4951 14.7881 59.3265 14.7881 60.3551V73.9592C14.7881 74.9859 15.6124 75.8192 16.6281 75.8192ZM18.4681 62.2133H22.6743V72.0973H18.4681V62.2133Z" fill="currentColor"/>
<path d="M40.285 75.8193C41.3006 75.8193 42.125 74.9878 42.125 73.9593V35.5689C42.125 34.5403 41.3006 33.7089 40.285 33.7089H32.3987C31.383 33.7089 30.5587 34.5403 30.5587 35.5689V73.9593C30.5587 74.9878 31.383 75.8193 32.3987 75.8193H40.285ZM34.2387 37.4289H38.445V72.0993H34.2387V37.4289Z" fill="currentColor"/>
<path d="M56.0556 75.8192C57.0713 75.8192 57.8956 74.9878 57.8956 73.9592V48.2857C57.8956 47.2571 57.0713 46.4257 56.0556 46.4257H48.1712C47.1555 46.4257 46.3312 47.2571 46.3312 48.2857V73.9592C46.3312 74.9878 47.1555 75.8192 48.1712 75.8192H56.0556ZM50.0112 50.1457H54.2174V72.0992H50.0112V50.1457Z" fill="currentColor"/>
<path d="M62.1019 18.1592V73.9592C62.1019 74.9878 62.9262 75.8192 63.9419 75.8192H71.8281C72.8438 75.8192 73.6681 74.9878 73.6681 73.9592V18.1592C73.6681 17.1306 72.8438 16.2992 71.8281 16.2992H63.9419C62.9262 16.2992 62.1019 17.1306 62.1019 18.1592ZM65.7819 20.0192H69.9881V72.0992H65.7819V20.0192Z" fill="currentColor"/>
</svg>
